<svg viewBox="0 0 512 512" width="512pt" xmlns="http://www.w3.org/2000/svg"><g transform="matrix(.1 0 0 -.1 0 512)"><path d="m2477 5106c-109-30-168-115-175-252l-5-85-36-15c-55-23-100-72-116-128-21-69-19-111 10-211l25-87-49-46c-82-78-98-176-55-331 23-80 73-175 191-358 178-278 216-382 211-565l-3-97-120 128c-137 145-174 206-229 376-19 61-51 161-71 224-47 147-91 234-155 304-71 78-122 101-211 95l-70-5-19 36c-27 54-107 139-151 161-46 24-115 26-169 4l-40-16-35 31c-86 76-187 98-273 61-28-12-68-40-88-62-103-115-97-230 18-353 53-58 58-66 48-86-21-38-7-124 26-172 34-49 106-100 174-124l48-17 5-63c6-82 41-140 113-192 97-70 205-100 499-140 268-37 353-70 477-189 70-67 178-191 178-205 0-2-26-8-57-11-557-64-949-358-1058-792-57-230-32-456 70-640 99-177 232-306 635-614 328-252 460-418 460-580 0-46 39-90 80-90s80 44 80 90c0 162 132 328 460 580 403 308 536 437 635 614 102 184 127 410 70 640-109 434-501 728-1057 792-32 3-58 9-58 11 0 14 108 138 178 205 124 119 209 152 477 189 294 40 402 70 499 140 72 52 107 110 113 192l5 63 48 17c68 24 140 75 174 124 33 48 47 134 26 172-10 20-5 28 48 86 115 123 121 238 18 353-20 22-60 50-88 62-86 37-187 15-273-61l-35-31-40 16c-54 22-123 20-169-4-44-22-124-107-151-161l-19-36-70 5c-89 6-140-17-211-95-64-70-108-157-155-304-20-63-52-163-71-224-55-170-92-231-229-376l-120-128-3 97c-5 183 33 287 211 565 118 183 168 278 191 358 43 155 27 253-55 331l-49 46 25 87c29 100 31 142 10 211-16 56-61 105-117 129l-38 15v63c0 168-84 269-236 282-35 3-79-1-107-9zm150-170c28-24 28-25 29-150 0-148 2-152 90-169 82-17 94-39 71-132-9-37-30-94-47-126-38-76-39-120-4-148 15-12 39-21 55-21 15 0 41-11 56-24 25-22 28-30 26-83-2-100-38-177-184-403l-74-115-5 158c-5 152-6 160-29 178-13 10-36 19-51 19s-38-9-51-19c-23-18-24-26-29-178l-5-158-74 115c-146 226-182 303-184 403-2 53 1 61 26 83 16 14 41 24 58 24 39 0 79 39 79 78 0 16-14 56-30 88-17 32-38 90-47 128-23 94-11 116 71 133 88 17 90 21 90 169 1 125 1 126 29 150 19 16 40 24 67 24s48-8 67-24zm-1545-775c26-16 57-44 70-61 29-40 72-63 101-54 12 4 37 20 55 35 53 47 82 37 134-43 19-29 43-73 53-98s28-55 39-67c27-32 79-31 118 2 90 76 183-33 269-320 22-75 39-139 36-141-2-2-48 30-102 71-55 42-110 78-123 82-36 9-75-8-90-39-22-47-6-75 86-147 47-36 97-76 111-87l25-21-135 18c-221 29-315 58-374 113-40 38-43 62-15 108 40 66 13 118-72 138-110 26-208 83-208 120 0 9 11 31 25 50 47 64 30 103-74 174-45 30-81 79-81 108 0 26 59 88 84 88 12 0 43-13 68-29zm3077-6c17-20 31-43 31-53 0-29-36-78-81-108-104-71-121-110-74-174 14-19 25-41 25-50 0-37-98-94-208-120-88-21-114-69-72-138 28-46 25-70-15-108-59-55-153-84-374-113l-135-18 25 21c14 11 64 51 111 87 92 72 108 100 86 147-15 31-54 48-90 39-13-4-68-40-123-82-54-41-100-73-102-71-3 2 14 66 36 141 86 287 179 396 269 320 59-49 120-27 153 55 37 96 102 180 138 180 11 0 35-13 53-29 18-15 43-31 55-35 29-9 72 14 101 54 29 38 108 90 138 90 13 0 35-15 53-35zm-1384-1606c548-71 892-402 898-864 3-280-121-461-541-786-354-274-471-380-546-496-12-18-23-33-26-33s-14 15-26 33c-75 116-192 222-546 496-420 325-544 506-541 787 3 223 80 410 232 563 103 104 219 175 376 231 218 77 472 101 720 69z"/><path d="m2681 2353c-33-28-37-75-9-106 19-22 41-31 123-47 55-11 108-20 118-20 28 0 67 45 67 78 0 51-27 72-121 93-106 23-151 24-178 2z"/><path d="m3125 2185c-44-43-35-75 46-152 114-110 159-209 159-353 0-72-3-85-40-156-22-43-40-86-40-97 0-10 14-32 30-49 51-51 103-24 158 80 41 77 54 131 53 223-1 194-87 374-233 490-59 46-97 51-133 14z"/></g></svg>
