<svg height="800" viewBox="0 0 512 512" width="800" xmlns="http://www.w3.org/2000/svg"><path d="m84.082 85.902c15.882-18.558 35.331 8.803 35.331 8.803 21.175-24.744 36.223 20.284 36.223 20.284s10.588-12.372 22.959-1.784c24.744 21.175 16.832 67.986 47.761 94.455-30.929-26.47-75.956-11.422-100.698-32.597-12.372-10.588-1.784-22.959-1.784-22.959s-46.81-7.912-25.635-32.655c-.001 0-30.038-14.989-14.157-33.547z" fill="#9bf57d"/><path d="m84.082 85.902c-15.882 18.557 14.156 33.547 14.156 33.547-21.175 24.743 25.635 32.654 25.635 32.654s-10.588 12.372 1.784 22.959c24.744 21.175 69.77 6.127 100.7 32.597z" fill="#8ce16e"/><path d="m427.917 85.902c-15.882-18.558-35.331 8.803-35.331 8.803-21.175-24.744-36.223 20.284-36.223 20.284s-10.588-12.372-22.959-1.784c-24.744 21.175-16.832 67.986-47.761 94.455 30.929-26.47 75.956-11.422 100.698-32.597 12.372-10.588 1.784-22.959 1.784-22.959s46.81-7.912 25.635-32.655c.002 0 30.039-14.989 14.157-33.547z" fill="#9bf57d"/><path d="m427.918 85.902c15.882 18.557-14.156 33.547-14.156 33.547 21.175 24.743-25.635 32.654-25.635 32.654s10.588 12.372-1.784 22.959c-24.744 21.175-69.77 6.127-100.7 32.597z" fill="#8ce16e"/><path d="m256 0c26.483 0 17.655 35.31 17.655 35.31 35.31 0 8.828 44.138 8.828 44.138s17.655 0 17.655 17.655c0 35.31-44.138 61.793-44.138 105.931 0-44.138-44.138-70.621-44.138-105.931 0-17.655 17.655-17.655 17.655-17.655s-26.483-44.138 8.828-44.138c0 0-8.828-35.31 17.655-35.31z" fill="#9bf57d"/><path d="m238.345 35.31c-35.31 0-8.828 44.138-8.828 44.138s-17.655 0-17.655 17.655c0 35.31 44.138 61.793 44.138 105.931v-203.034c-26.483 0-17.655 35.31-17.655 35.31z" fill="#8ce16e"/><path d="m256 256c-4.879 0-8.828-3.948-8.828-8.828v-123.586c0-4.879 3.948-8.828 8.828-8.828 4.879 0 8.828 3.948 8.828 8.828v123.586c0 4.88-3.949 8.828-8.828 8.828z" fill="#ff556e"/><path d="m350.673 154.422c-2.879-3.932-8.388-4.802-12.337-1.922-11.672 8.522-61.683 45.932-82.336 75.316-20.653-29.383-70.665-66.794-82.336-75.316-3.939-2.879-9.465-2.008-12.337 1.922-2.871 3.939-2.017 9.457 1.922 12.337 33.009 24.113 80.914 65.508 84.077 82.069.81 4.233 4.509 7.172 8.664 7.172.552 0 1.103-.052 1.664-.156 3.663-.698 6.323-3.574 6.983-7.023l.034.007c3.164-16.561 51.069-57.956 84.077-82.069 3.942-2.879 4.795-8.397 1.925-12.337z" fill="#ff6f82"/><path d="m256 247.172c-68.255 0-123.586 36.732-123.586 101.258 0 58.891 70.615 86.624 105.074 123.578 6.182 6.628 9.685 15.294 9.685 24.358v6.806c0 4.875 3.953 8.828 8.828 8.828s8.828-3.953 8.828-8.828v-6.807c0-9.064 3.503-17.728 9.685-24.358 34.458-36.953 105.074-64.686 105.074-123.577-.002-64.526-55.333-101.258-123.588-101.258z" fill="#d74664"/><path d="m340.414 375.362c-1.629 0-3.284-.362-4.853-1.129-5.474-2.681-7.733-9.293-5.043-14.767 1.836-3.733 2.724-7.345 2.724-11.034 0-14.327-4.948-26.155-14.707-35.155-4.474-4.129-4.759-11.112-.629-15.595 4.138-4.474 11.129-4.759 15.595-.629 14.268 13.164 21.811 30.931 21.811 51.379 0 7.034-1.673 14.026-4.983 20.759-1.915 3.904-5.838 6.171-9.915 6.171zm-49.112-77.293c-.966 0-1.94-.12-2.914-.388-3.276-.897-6.63-1.638-10.008-2.241-6.001-1.06-10.008-6.784-8.94-12.785 1.052-6.008 6.716-10.087 12.785-8.94 4.034.707 8.043 1.603 11.975 2.673 5.879 1.603 9.345 7.672 7.742 13.551-1.338 4.906-5.786 8.13-10.64 8.13z" fill="#ff556e"/><path d="m263.078 472.008c-19.692-36.954-60.043-64.686-60.043-123.577 0-34.163 8.89-60.472 23.028-77.703 3.462-4.219 3.526-10.226.116-14.486-2.776-3.47-7.336-5.155-11.647-4.074-47.841 12.001-82.118 45.501-82.118 96.263 0 58.891 70.616 86.624 105.075 123.578 6.18 6.628 9.684 15.293 9.684 24.356v6.807c0 4.875 3.953 8.828 8.828 8.828s8.828-3.953 8.828-8.828v-6.807c0-2.002.178-3.981.519-5.923 1.09-6.22.736-12.749-2.215-18.332-.019-.034-.038-.068-.055-.102z" fill="#be3c5a"/></svg>